<?xml version="1.0" standalone="no"?>
<!DOCTYPE svg PUBLIC "-//W3C//DTD SVG 20010904//EN"
 "http://www.w3.org/TR/2001/REC-SVG-20010904/DTD/svg10.dtd">
<svg version="1.0" xmlns="http://www.w3.org/2000/svg"
 width="260.000000pt" height="260.000000pt" viewBox="0 0 260.000000 260.000000"
 preserveAspectRatio="xMidYMid meet">
<metadata>
Created by potrace 1.11, written by Peter Selinger 2001-2013
</metadata>
<g transform="translate(0.000000,260.000000) scale(0.100000,-0.100000)"
fill="#000000" stroke="none">
<path d="M999 2415 c-3 -2 -32 -7 -65 -10 -117 -10 -156 -16 -176 -26 -11 -6
-18 -7 -15 -1 9 14 -86 -20 -103 -37 -19 -18 -20 -42 -3 -59 8 -8 13 -38 13
-75 -1 -50 -3 -58 -12 -43 -20 36 -41 54 -54 49 -8 -3 -14 -1 -14 4 0 16 -109
22 -165 9 -16 -4 -36 -8 -42 -8 -7 -1 -13 -5 -13 -10 0 -4 -9 -8 -19 -8 -10 0
-22 -7 -25 -16 -4 -9 -9 -14 -12 -11 -13 13 -81 -76 -87 -112 -2 -11 -6 -24
-10 -27 -12 -12 -8 -26 6 -18 9 6 9 5 0 -7 -11 -13 -11 -42 0 -79 15 -49 20
-60 27 -60 5 0 12 -9 15 -20 4 -11 11 -18 16 -15 5 4 9 -1 9 -10 0 -8 7 -18
15 -21 8 -4 12 -10 9 -15 -3 -5 0 -9 6 -9 6 0 24 -14 40 -30 17 -17 30 -27 30
-23 0 4 5 0 11 -9 5 -10 17 -18 25 -18 8 0 12 -4 9 -10 -3 -5 6 -12 20 -16 13
-3 22 -10 19 -15 -3 -5 2 -9 10 -9 8 0 20 -8 25 -17 6 -10 11 -15 11 -10 0 9
76 -29 85 -43 4 -6 11 -8 16 -5 5 4 9 1 9 -6 0 -7 3 -9 7 -6 11 11 62 -50 58
-70 -2 -10 -4 -21 -4 -25 -1 -4 -7 -5 -15 -2 -8 3 -17 0 -21 -6 -6 -9 -10 -9
-16 1 -7 11 -9 11 -9 -2 0 -25 23 -39 73 -44 32 -3 50 0 61 10 8 8 18 15 22
15 3 0 15 10 25 22 l19 21 0 -21 c0 -12 5 -22 10 -22 6 0 10 -6 10 -13 0 -15
76 -120 90 -125 6 -2 10 -10 10 -18 0 -8 4 -14 10 -14 5 0 20 -11 34 -25 14
-14 32 -25 41 -25 8 0 15 -7 15 -15 0 -8 9 -15 20 -15 11 0 20 -5 20 -11 0 -5
4 -8 9 -5 10 7 51 -27 51 -43 0 -6 -4 -11 -10 -11 -22 0 -8 -32 20 -48 16 -9
30 -24 31 -32 3 -40 -4 -88 -16 -113 -9 -17 -9 -25 -2 -20 6 3 0 -9 -13 -28
-39 -54 -53 -68 -62 -63 -4 3 -8 0 -8 -5 0 -6 -3 -10 -7 -9 -13 4 -54 -22 -49
-31 3 -4 -11 -15 -30 -26 -26 -14 -34 -24 -34 -47 0 -15 -4 -29 -10 -29 -5 -1
-14 -3 -20 -4 -5 -1 -34 -3 -63 -4 -78 -2 -85 -18 -83 -198 1 -128 -1 -142
-16 -147 -10 -2 -18 0 -18 5 0 5 -10 5 -22 1 -13 -5 -33 -7 -45 -6 -13 0 -23
-3 -23 -7 0 -5 -7 -9 -15 -9 -8 0 -17 -11 -21 -25 -3 -14 -10 -22 -15 -19 -5
3 -6 -2 -3 -10 3 -9 2 -16 -3 -16 -12 0 -11 -70 1 -88 6 -11 11 -11 24 0 11 9
14 9 9 1 -6 -10 138 -12 663 -12 402 0 672 4 676 10 3 5 10 7 15 4 5 -4 9 -1
9 5 0 6 4 9 9 6 24 -15 21 69 -4 102 -37 49 -49 54 -122 55 -21 1 -35 7 -37
16 -9 31 -3 156 8 170 8 12 8 13 -1 7 -9 -5 -13 0 -13 13 0 12 6 21 13 21 8 0
8 3 2 8 -12 8 -13 27 -3 37 9 9 -32 76 -42 70 -5 -3 -11 -2 -14 3 -2 4 -30 7
-62 5 -55 -2 -106 13 -88 26 25 17 3 61 -30 61 -9 0 -16 7 -16 15 0 8 -19 24
-42 36 -24 12 -51 30 -61 41 -30 31 -56 101 -58 155 -2 55 5 73 27 73 8 0 14
5 14 11 0 5 4 8 9 4 10 -6 7 27 -4 45 -5 8 26 48 40 51 27 5 45 13 45 20 0 5
5 9 10 9 11 0 24 9 60 42 10 9 21 14 23 11 3 -2 8 5 12 16 3 12 11 19 16 16 5
-4 9 1 9 9 0 9 5 16 12 16 6 0 9 3 6 6 -4 3 1 14 10 24 31 33 52 64 52 77 0 7
5 13 10 13 6 0 10 7 10 15 0 23 16 18 40 -12 12 -16 18 -21 14 -13 -7 13 -5
13 8 2 22 -18 81 -25 72 -9 -5 9 -3 9 6 0 11 -10 18 -9 34 5 14 13 18 13 12 2
-4 -8 0 -6 8 4 9 11 16 25 16 30 0 7 -3 8 -8 1 -10 -14 -32 -17 -32 -5 0 5 -6
7 -14 4 -8 -3 -17 0 -21 5 -3 6 -10 9 -14 7 -4 -3 -8 4 -8 15 -1 11 2 17 8 14
5 -4 9 3 9 15 0 11 8 23 18 27 9 3 32 17 51 31 19 14 31 19 26 11 -7 -11 -5
-11 11 1 10 8 22 20 26 25 4 6 8 6 8 1 0 -4 16 4 35 18 19 15 35 24 35 20 0
-4 9 3 20 16 11 13 20 20 20 16 0 -8 18 6 66 51 19 18 34 30 34 27 0 -5 36 33
89 95 12 13 21 30 21 38 0 7 5 13 11 13 5 0 8 4 4 9 -3 5 -2 12 3 15 13 8 15
96 2 96 -6 0 -9 4 -6 8 3 5 -2 22 -10 38 -9 16 -14 29 -12 30 8 1 -52 64 -63
66 -7 2 -22 11 -33 21 -17 15 -30 19 -52 16 -4 0 -10 4 -13 10 -4 6 -28 11
-54 12 -26 1 -47 7 -47 13 0 7 -3 7 -8 1 -4 -5 -12 -11 -18 -12 -6 -1 -23 -4
-38 -7 -15 -3 -42 -14 -61 -26 -33 -20 -35 -21 -36 -3 -2 35 3 68 14 88 6 11
12 25 12 30 1 14 -18 34 -27 28 -5 -2 -8 0 -8 6 0 5 -15 13 -32 16 -18 4 -38
12 -45 17 -7 6 -14 5 -18 -3 -5 -7 -10 -8 -14 -1 -6 10 -45 16 -158 26 -23 2
-46 7 -52 11 -6 3 -11 0 -11 -7 0 -9 -3 -9 -10 2 -7 11 -10 11 -10 2 0 -8 -5
-10 -12 -5 -18 10 -549 10 -555 -1 -3 -4 -9 -3 -12 3 -4 6 -10 9 -12 6z m-456
-311 c4 -1 11 -2 16 -3 17 -2 20 -46 6 -68 -8 -12 -15 -27 -15 -33 0 -15 32
-12 56 5 12 8 25 11 29 7 5 -4 5 -2 2 4 -4 7 1 18 10 25 12 10 14 10 9 2 -4
-8 -2 -13 6 -13 9 0 9 -3 -2 -10 -12 -8 -12 -10 -1 -10 11 0 11 -3 0 -17 -10
-11 -10 -14 -1 -9 8 5 12 -2 13 -26 3 -73 7 -100 17 -110 8 -8 8 -17 1 -31 -7
-11 -7 -17 -1 -13 5 3 13 -15 17 -42 10 -72 12 -79 28 -111 19 -39 7 -47 -25
-18 -40 35 -83 70 -114 92 -15 11 -36 28 -46 38 -10 9 -20 17 -22 17 -9 0
-108 96 -123 119 -20 32 -34 89 -22 97 5 3 7 10 3 15 -3 5 0 17 8 26 7 9 11
17 8 19 -11 5 48 43 73 46 14 2 29 7 33 11 4 3 12 3 18 -1 6 -4 14 -7 19 -8z
m1611 -7 c10 -2 24 -11 31 -20 7 -9 15 -14 18 -10 4 3 7 -1 7 -10 0 -9 8 -21
18 -26 11 -7 13 -10 3 -11 -11 0 -11 -3 -1 -15 10 -12 10 -15 0 -15 -9 0 -9
-4 1 -17 11 -13 11 -17 1 -21 -10 -3 -10 -7 0 -20 7 -9 9 -13 3 -11 -5 3 -18
-2 -27 -13 -10 -10 -15 -18 -10 -18 4 -1 -3 -9 -15 -19 -12 -10 -19 -21 -16
-25 4 -3 2 -6 -4 -6 -6 0 -28 -16 -49 -35 -22 -19 -45 -35 -51 -35 -7 0 -13
-6 -13 -14 0 -8 -8 -17 -17 -20 -16 -6 -53 -34 -105 -80 -9 -8 -19 -12 -21 -9
-3 2 -10 -5 -17 -16 -15 -28 -30 -26 -30 4 0 14 5 25 11 25 5 0 7 5 4 10 -3 6
0 10 7 11 10 0 11 2 0 6 -10 4 -10 8 -1 19 6 8 8 14 4 14 -4 0 -2 7 5 15 7 8
9 15 5 15 -4 0 -1 8 6 17 12 14 12 15 1 9 -11 -7 -12 -4 -3 11 6 11 7 23 4 27
-3 3 -2 6 3 6 5 0 10 8 10 18 0 9 4 40 8 67 4 28 8 68 9 90 3 44 9 51 35 36 9
-6 13 -11 7 -11 -19 -1 40 -29 63 -30 24 0 25 1 16 24 -3 9 -9 14 -14 11 -11
-7 -10 58 1 71 8 10 65 11 113 1z"/>
</g>
</svg>
